<svg xmlns="http://www.w3.org/2000/svg" width="800" height="800" style="display:block" viewBox="0 0 800 800"><g fill="none" stroke="#000" stroke-width=".75" opacity=".05"><path d="M0 0c200 10 300-30 400 0s200-10 400 0M0 100c200 20 300-40 400-10s200-10 400 10M0 200c200 40 300-40 400 10s200-50 400-10M0 300c200-20 300 50 400 20s200 0 400-20M0 400c200 30 300-20 400-10s200-20 400 10M0 500c200 60 300-20 400 20s200-80 400-20M0 600c200-20 300 30 400 10s200 10 400-10M0 700c200 40 300-50 400 20s200-60 400-20"/></g></svg>