<svg xmlns="http://www.w3.org/2000/svg" width="800" height="800" viewBox="0 0 800 800"><g fill="none" stroke="#000" stroke-width="0.75" opacity="0.05"><path d="M-100 100c200 50 300-50 500 0s300-50 500 0M-100 200c250 50 350-50 500 0s250-50 500 0M-100 300c200 50 400-50 500 0s300-50 500 0M-100 400c300 50 300-50 500 0s200-50 500 0M-100 500c250 50 350-50 500 0s250-50 500 0M-100 600c200 50 400-50 500 0s300-50 500 0M-100 700c300 50 300-50 500 0s200-50 500 0M-100 800c250 50 350-50 500 0s250-50 500 0"/><path d="M100-100c50 200-50 400 0 600s-50 300 0 400M300-100c50 200-50 400 0 600s-50 300 0 400M500-100c50 200-50 400 0 600s-50 300 0 400M700-100c50 200-50 400 0 600s-50 300 0 400"/></g></svg>